# xmcd CD database file
#
# Track frame offsets:
#	150
#	21880
#	40424
#	65603
#	98839
#	130445
#	159276
#	198327
#	228290
#	263028
#
# Disc length: 3863 seconds
#
# Revision: 0
# Processed by: cddbd v1.5.2PL0 Copyright (c) Steve Scherf et al.
# Submitted via: CDex 1.51
#
DISCID=820f150a
DTITLE=Dan Cahn, Dror Bar-Israel, Uri Kazimirski, Gideon Paschov - Figment
DYEAR=1997
DGENRE=Jazz
TTITLE0=Whose Blues
TTITLE1=Winter Song
TTITLE2=Monk'y Business
TTITLE3=Figment
TTITLE4=Summer Dream
TTITLE5=Seb's Tune
TTITLE6=Shadows
TTITLE7=Israelian Bar Blues
TTITLE8=Ballad
TTITLE9=Buesy Cafe Au-Lait
EXTD=YEAR: 1997
EXTT0=
EXTT1=
EXTT2=
EXTT3=
EXTT4=
EXTT5=
EXTT6=
EXTT7=
EXTT8=
EXTT9=
PLAYORDER=
